<svg width="20" height="20" viewBox="0 0 20 20" fill="none" xmlns="http://www.w3.org/2000/svg">
<path d="M11.6101 10.2431C11.6041 10.5599 11.5041 10.8677 11.3229 11.1277C11.1417 11.3876 10.8874 11.5878 10.5923 11.7031C10.2971 11.8183 9.9744 11.8433 9.66503 11.7749C9.35566 11.7065 9.07356 11.5478 8.85448 11.3189C8.63541 11.09 8.48923 10.8012 8.43448 10.4891C8.37972 10.177 8.41885 9.85574 8.54691 9.56593C8.67497 9.27612 8.8862 9.03085 9.15381 8.86122C9.42142 8.6916 9.73337 8.60524 10.0501 8.6131C10.471 8.62869 10.8693 8.8076 11.1605 9.11189C11.4517 9.41617 11.613 9.82192 11.6101 10.2431Z" fill="black"/>
<path d="M12.7631 5.23309H7.33815C6.80135 5.23309 6.28654 5.44634 5.90696 5.82591C5.52739 6.20548 5.31415 6.7203 5.31415 7.25709V12.8041C5.31415 13.0699 5.3665 13.3331 5.46822 13.5786C5.56993 13.8242 5.71902 14.0473 5.90696 14.2353C6.09491 14.4232 6.31803 14.5723 6.5636 14.674C6.80916 14.7757 7.07235 14.8281 7.33815 14.8281H12.7631C13.0289 14.8281 13.2921 14.7757 13.5377 14.674C13.7833 14.5723 14.0064 14.4232 14.1943 14.2353C14.3823 14.0473 14.5314 13.8242 14.6331 13.5786C14.7348 13.3331 14.7871 13.0699 14.7871 12.8041V7.26709C14.7882 7.00053 14.7366 6.73638 14.6354 6.48978C14.5342 6.24318 14.3853 6.01898 14.1973 5.83003C14.0093 5.64108 13.7858 5.49108 13.5397 5.38865C13.2936 5.28622 13.0297 5.23335 12.7631 5.23309ZM10.0501 12.9561C9.51311 12.9682 8.98464 12.8201 8.53219 12.5305C8.07973 12.241 7.7238 11.8232 7.50984 11.3305C7.29587 10.8377 7.23356 10.2924 7.33086 9.76415C7.42817 9.23587 7.68067 8.74856 8.05615 8.36441C8.43163 7.98026 8.91305 7.7167 9.43898 7.60736C9.96491 7.49803 10.5115 7.54788 11.009 7.75054C11.5064 7.95321 11.9322 8.29951 12.232 8.74524C12.5318 9.19097 12.692 9.71592 12.6921 10.2531C12.6965 10.6041 12.6316 10.9526 12.5011 11.2785C12.3706 11.6045 12.1772 11.9015 11.9318 12.1525C11.6863 12.4036 11.3938 12.6038 11.071 12.7417C10.7481 12.8796 10.4012 12.9524 10.0501 12.9561ZM12.9861 7.55109C12.9202 7.55111 12.8548 7.53795 12.794 7.5124C12.7332 7.48686 12.678 7.44942 12.6318 7.4023C12.5856 7.35518 12.5493 7.29931 12.525 7.23798C12.5007 7.17664 12.4888 7.11107 12.4901 7.04509C12.4901 6.91089 12.5435 6.78219 12.6384 6.6873C12.7332 6.5924 12.8619 6.53909 12.9961 6.53909C13.1303 6.53909 13.2591 6.5924 13.3539 6.6873C13.4488 6.78219 13.5021 6.91089 13.5021 7.04509C13.5041 7.11653 13.4907 7.18755 13.4626 7.2533C13.4346 7.31904 13.3928 7.37796 13.3399 7.42601C13.287 7.47407 13.2243 7.51012 13.1562 7.53171C13.0881 7.5533 13.0161 7.55991 12.9451 7.55109H12.9861Z" fill="black"/>
<path d="M10.0501 0.000125174C7.39796 -0.0131357 4.84915 1.02771 2.96441 2.8937C1.07967 4.75969 0.013386 7.29796 0.000125174 9.95012C-0.0131357 12.6023 1.02771 15.1511 2.8937 17.0358C4.75969 18.9206 7.29796 19.9869 9.95012 20.0001C11.2633 20.0067 12.565 19.7545 13.7808 19.2581C14.9965 18.7616 16.1026 18.0305 17.0358 17.1065C17.9691 16.1826 18.7112 15.0839 19.2198 13.8732C19.7284 12.6624 19.9936 11.3633 20.0001 10.0501C20.0067 8.73691 19.7545 7.43525 19.2581 6.21948C18.7616 5.00372 18.0305 3.89764 17.1065 2.96441C16.1826 2.03118 15.0839 1.28908 13.8732 0.780464C12.6624 0.271851 11.3633 0.00669127 10.0501 0.000125174ZM16.1231 12.7021C16.1259 13.1508 16.0396 13.5955 15.8693 14.0105C15.6989 14.4256 15.4478 14.8026 15.1306 15.1199C14.8134 15.4372 14.4364 15.6884 14.0214 15.8589C13.6065 16.0294 13.1618 16.1158 12.7131 16.1131H7.38913C6.94049 16.1159 6.49577 16.0296 6.08073 15.8593C5.6657 15.6889 5.28861 15.4378 4.97133 15.1206C4.65404 14.8034 4.40287 14.4264 4.23238 14.0114C4.06189 13.5965 3.97547 13.1518 3.97813 12.7031V7.37813C3.97534 6.92949 4.06163 6.48477 4.232 6.06973C4.40237 5.6547 4.65343 5.27761 4.97062 4.96033C5.28781 4.64304 5.66482 4.39187 6.07981 4.22138C6.49479 4.05089 6.93949 3.96447 7.38812 3.96713H12.7131C13.1617 3.96447 13.6063 4.05086 14.0212 4.22129C14.4361 4.39172 14.8131 4.6428 15.1303 4.95997C15.4475 5.27715 15.6985 5.65412 15.869 6.06904C16.0394 6.48396 16.1258 6.92858 16.1231 7.37713V12.7021Z" fill="black"/>
</svg>
