<?xml version="1.0" encoding="UTF-8"?>
<svg id="Layer_1" xmlns="http://www.w3.org/2000/svg" xmlns:xlink="http://www.w3.org/1999/xlink" version="1.1" viewBox="0 0 20 20">
  <!-- Generator: Adobe Illustrator 29.8.2, SVG Export Plug-In . SVG Version: 2.1.1 Build 3)  -->
  <defs>
    <style>
      .st0 {
        fill: none;
      }

      .st1 {
        clip-path: url(#clippath);
      }
    </style>
    <clipPath id="clippath">
      <rect class="st0" y="0" width="20" height="20"/>
    </clipPath>
  </defs>
  <g class="st1">
    <path d="M10,0C4.48,0,0,4.48,0,10s4.48,10,10,10,10-4.48,10-10S15.52,0,10,0ZM7.55,14.14h-2.03v-6.52h2.03v6.52ZM6.53,6.83c-.64,0-1.05-.45-1.05-1.01s.43-1.01,1.08-1.01,1.05.44,1.07,1.01c0,.56-.41,1.01-1.09,1.01ZM14.95,14.14h-2.03v-3.61c0-.84-.29-1.41-1.03-1.41-.56,0-.89.39-1.04.76-.05.13-.07.32-.07.51v3.76h-2.03v-4.44c0-.81-.03-1.49-.05-2.08h1.76l.09.91h.04c.27-.43.92-1.05,2.01-1.05,1.33,0,2.33.89,2.33,2.81v3.85Z"/>
  </g>
</svg>